//Arquivo de melodias:

/*
Obs:
NOTE_G5, COLCHEIA+SEMICOLCHEIA,     //. ponto (significa mais metade do tempo da nota anterior)
NOTE_E5, SEMICOLCHEIA+SEMICOLCHEIA, //) ligado (significa mais o mesmo tempo da nota anterior)
*/

/*
Crazy Frog / Um tira da pesada:
*/
int cop[]={
//parte 1:
NOTE_E5, SEMINIMA,
NOTE_G5, COLCHEIA+SEMICOLCHEIA,
NOTE_E5, SEMICOLCHEIA+SEMICOLCHEIA,
NOTE_E5, SEMICOLCHEIA,
NOTE_A5, COLCHEIA,
NOTE_E5, COLCHEIA,
NOTE_D4, COLCHEIA,

NOTE_E5, SEMINIMA,
NOTE_B5, COLCHEIA+SEMICOLCHEIA,
NOTE_E5, SEMICOLCHEIA+SEMICOLCHEIA,
NOTE_E5, SEMICOLCHEIA,
NOTE_C6, COLCHEIA,
NOTE_B5, COLCHEIA,
NOTE_G5, COLCHEIA,

NOTE_E5, COLCHEIA,
NOTE_B5, COLCHEIA,
NOTE_E6, COLCHEIA,
NOTE_E5, SEMICOLCHEIA,
NOTE_D4, SEMICOLCHEIA+SEMICOLCHEIA,
NOTE_D4, SEMICOLCHEIA,
NOTE_B4, COLCHEIA,
NOTE_FS5, COLCHEIA,
NOTE_E5, COLCHEIA+SEMIBREVE,

//parte 2:
NOTE_E5, SEMINIMA,
NOTE_G5, COLCHEIA+SEMICOLCHEIA,
NOTE_E5, SEMICOLCHEIA+SEMICOLCHEIA,
NOTE_E5, SEMICOLCHEIA,
NOTE_A5, COLCHEIA,
NOTE_E5, COLCHEIA,
NOTE_D4, COLCHEIA,

NOTE_E5, SEMINIMA,
NOTE_B5, COLCHEIA+SEMICOLCHEIA,
NOTE_E5, SEMICOLCHEIA+SEMICOLCHEIA,
NOTE_E5, SEMICOLCHEIA,
NOTE_C6, COLCHEIA,
NOTE_B5, COLCHEIA,
NOTE_G5, COLCHEIA,

NOTE_E5, COLCHEIA,
NOTE_B5, COLCHEIA,
NOTE_E6, COLCHEIA,
NOTE_E5, SEMICOLCHEIA,
NOTE_D4, SEMICOLCHEIA+SEMICOLCHEIA,
NOTE_D4, SEMICOLCHEIA,
NOTE_B4, COLCHEIA,
NOTE_FS5, COLCHEIA,
NOTE_E5, COLCHEIA+SEMIBREVE

//todo parte 3...
};

int qtdNotasCop = sizeof(cop) / sizeof(cop[0]) / 2;

//-----