//Arquivo de melodias:

/*
Crazy Frog / Um tira da pesada:
*/
int cop[]={

//parte 1:
NOTE_E5, SEMINIMA,
NOTE_G5, COLCHEIA+SEMICOLCHEIA,  //. ponto (mais metade do tempo)
NOTE_E5, SEMICOLCHEIA+SEMICOLCHEIA, //) ligado (mais o mesmo tempo)
NOTE_E5, SEMICOLCHEIA,
NOTE_A5, COLCHEIA,
NOTE_E5, COLCHEIA,
NOTE_D4, COLCHEIA,

NOTE_E5, SEMINIMA,
NOTE_B5, COLCHEIA+SEMICOLCHEIA,
NOTE_E5, SEMICOLCHEIA+SEMICOLCHEIA,
NOTE_E5, SEMICOLCHEIA,
NOTE_C6, COLCHEIA,
NOTE_B5, COLCHEIA,
NOTE_G5, COLCHEIA,

NOTE_E5, COLCHEIA,
NOTE_B5, COLCHEIA,
NOTE_E6, COLCHEIA,
NOTE_E5, SEMICOLCHEIA,
NOTE_D4, SEMICOLCHEIA+SEMICOLCHEIA,
NOTE_D4, SEMICOLCHEIA,
NOTE_B4, COLCHEIA,
NOTE_FS5, COLCHEIA,
NOTE_E5, COLCHEIA+SEMIBREVE,

//parte 2:
NOTE_E5, SEMINIMA,
NOTE_G5, COLCHEIA+SEMICOLCHEIA,  //. ponto (mais metade do tempo)
NOTE_E5, SEMICOLCHEIA+SEMICOLCHEIA, //) ligado (mais o mesmo tempo)
NOTE_E5, SEMICOLCHEIA,
NOTE_A5, COLCHEIA,
NOTE_E5, COLCHEIA,
NOTE_D4, COLCHEIA,

NOTE_E5, SEMINIMA,
NOTE_B5, COLCHEIA+SEMICOLCHEIA,
NOTE_E5, SEMICOLCHEIA+SEMICOLCHEIA,
NOTE_E5, SEMICOLCHEIA,
NOTE_C6, COLCHEIA,
NOTE_B5, COLCHEIA,
NOTE_G5, COLCHEIA,

NOTE_E5, COLCHEIA,
NOTE_B5, COLCHEIA,
NOTE_E6, COLCHEIA,
NOTE_E5, SEMICOLCHEIA,
NOTE_D4, SEMICOLCHEIA+SEMICOLCHEIA,
NOTE_D4, SEMICOLCHEIA,
NOTE_B4, COLCHEIA,
NOTE_FS5, COLCHEIA,
NOTE_E5, COLCHEIA+SEMIBREVE

//todo parte 3...

};

int qtdNotasCop = sizeof(cop) / sizeof(cop[0]) / 2;

//-----

/*
Tema - Missao impossivel:
*/
int missao[]={
NOTE_G4, SEMINIMA, PAUSA, COLCHEIA, NOTE_G4, COLCHEIA+SEMINIMA, NOTE_AS4, SEMINIMA, NOTE_C5, SEMINIMA,
NOTE_G4, SEMINIMA, PAUSA, COLCHEIA, NOTE_G4, COLCHEIA+SEMINIMA, NOTE_F4, SEMINIMA, NOTE_FS4, SEMINIMA,
NOTE_G4, SEMINIMA, PAUSA, COLCHEIA, NOTE_G4, COLCHEIA+SEMINIMA, NOTE_AS4, SEMINIMA, NOTE_C5, SEMINIMA,
NOTE_G4, SEMINIMA, PAUSA, COLCHEIA, NOTE_G4, COLCHEIA+SEMINIMA, NOTE_F4, SEMINIMA, NOTE_FS4, SEMINIMA,

NOTE_B5, COLCHEIA, NOTE_G5, COLCHEIA, NOTE_D5, SEMIBREVE,
NOTE_B5, COLCHEIA, NOTE_G5, COLCHEIA, NOTE_CS4, SEMIBREVE,
NOTE_B5, COLCHEIA, NOTE_G5, COLCHEIA, NOTE_C4, SEMIBREVE,
NOTE_B4, COLCHEIA, NOTE_C4, COLCHEIA, PAUSA, SEMIBREVE,

NOTE_B4, COLCHEIA, NOTE_G4, COLCHEIA, NOTE_FS5, SEMIBREVE,
NOTE_B4, COLCHEIA, NOTE_G4, COLCHEIA, NOTE_F5, SEMIBREVE,
NOTE_B4, COLCHEIA, NOTE_G4, COLCHEIA, NOTE_E5, SEMIBREVE,
NOTE_E5, COLCHEIA, NOTE_D5, COLCHEIA, PAUSA, SEMIBREVE,

/*
comentado para economizar memória (demo limit)...
NOTE_E5, COLCHEIA, NOTE_C4, COLCHEIA, NOTE_G4, SEMIBREVE,
NOTE_E5, COLCHEIA, NOTE_C4, COLCHEIA, NOTE_FS4, SEMIBREVE,
NOTE_E5, COLCHEIA, NOTE_C4, COLCHEIA, NOTE_F4, SEMIBREVE,
NOTE_E4, COLCHEIA, NOTE_F4, COLCHEIA, PAUSA, SEMIBREVE,

NOTE_B5, COLCHEIA, NOTE_G5, COLCHEIA, NOTE_D5, SEMIBREVE,
NOTE_B5, COLCHEIA, NOTE_G5, COLCHEIA, NOTE_CS4, SEMIBREVE,
NOTE_B5, COLCHEIA, NOTE_G5, COLCHEIA, NOTE_C4, SEMIBREVE,
NOTE_B4, COLCHEIA, NOTE_C4, COLCHEIA, PAUSA, SEMIBREVE,
*/

NOTE_G4, SEMINIMA, PAUSA, COLCHEIA, NOTE_G4, COLCHEIA+SEMINIMA, NOTE_AS4, SEMINIMA, NOTE_C5, SEMINIMA,
NOTE_G4, SEMINIMA, PAUSA, COLCHEIA, NOTE_G4, COLCHEIA+SEMINIMA, NOTE_F4, SEMINIMA, NOTE_FS4, SEMINIMA,
NOTE_G4, SEMINIMA, PAUSA, COLCHEIA, NOTE_G4, COLCHEIA+SEMINIMA, NOTE_AS4, SEMINIMA, NOTE_C5, SEMINIMA,
NOTE_G4, SEMINIMA, PAUSA, COLCHEIA, NOTE_G4, COLCHEIA+SEMINIMA, NOTE_F4, SEMINIMA, NOTE_FS4, SEMINIMA,
NOTE_G4, MINIMA, PAUSA, SEMIBREVE
};

int qtdNotasMissao = sizeof(missao) / sizeof(missao[0]) / 2;

//-----

/*
The Final Countdown:
*/
int tfc[]={

//parte 1:
NOTE_B4, SEMICOLCHEIA, NOTE_A4, SEMICOLCHEIA, NOTE_B4, COLCHEIA, NOTE_E4, SEMINIMA+SEMINIMA, PAUSA, COLCHEIA,
NOTE_C5, SEMICOLCHEIA, NOTE_B4, SEMICOLCHEIA, NOTE_C5, COLCHEIA, NOTE_B4, COLCHEIA, NOTE_A4, SEMINIMA+SEMINIMA, PAUSA, COLCHEIA,
NOTE_C5, SEMICOLCHEIA, NOTE_B4, SEMICOLCHEIA, NOTE_C5, SEMINIMA, NOTE_E4, SEMINIMA+SEMINIMA,  PAUSA, COLCHEIA,
NOTE_A4, SEMICOLCHEIA, NOTE_G4, SEMICOLCHEIA, NOTE_A4, COLCHEIA, NOTE_G4, COLCHEIA, NOTE_FS4, COLCHEIA, NOTE_A4, COLCHEIA,
NOTE_G4, SEMINIMA, PAUSA, COLCHEIA,

NOTE_B4, SEMICOLCHEIA, NOTE_A4, SEMICOLCHEIA, NOTE_B4, COLCHEIA, NOTE_E4, SEMINIMA+SEMINIMA, PAUSA, COLCHEIA,
NOTE_C5, SEMICOLCHEIA, NOTE_B4, SEMICOLCHEIA, NOTE_C5, COLCHEIA, NOTE_B4, COLCHEIA, NOTE_A4, SEMINIMA+SEMINIMA, PAUSA, COLCHEIA,
NOTE_C5, SEMICOLCHEIA, NOTE_B4, SEMICOLCHEIA, NOTE_C5, SEMINIMA, NOTE_E4, SEMINIMA+SEMINIMA,  PAUSA, COLCHEIA,
NOTE_A4, SEMICOLCHEIA, NOTE_G4, SEMICOLCHEIA, NOTE_A4, COLCHEIA, NOTE_G4, COLCHEIA, NOTE_FS4, COLCHEIA, NOTE_A4, COLCHEIA,

//parte 2:
/*
NOTE_G4, SEMINIMA, PAUSA, COLCHEIA,
NOTE_B4, SEMICOLCHEIA, NOTE_A4, SEMICOLCHEIA, NOTE_B4, COLCHEIA, NOTE_E4, SEMINIMA+SEMINIMA, PAUSA, COLCHEIA,

NOTE_C5, SEMICOLCHEIA, NOTE_B4, SEMICOLCHEIA, NOTE_C5, COLCHEIA, NOTE_B4, COLCHEIA, NOTE_A4, SEMINIMA+SEMINIMA, PAUSA, COLCHEIA,
NOTE_C5, SEMICOLCHEIA, NOTE_B4, SEMICOLCHEIA, NOTE_C5, SEMINIMA, NOTE_E4, SEMINIMA+SEMINIMA,  PAUSA, COLCHEIA,
NOTE_A4, SEMICOLCHEIA, NOTE_G4, SEMICOLCHEIA, NOTE_A4, COLCHEIA, NOTE_G4, COLCHEIA, NOTE_FS4, COLCHEIA, NOTE_A4, COLCHEIA,
NOTE_G4, SEMINIMA, PAUSA, COLCHEIA,

NOTE_B4, SEMICOLCHEIA, NOTE_A4, SEMICOLCHEIA, NOTE_B4, COLCHEIA, NOTE_E4, SEMINIMA+SEMINIMA, PAUSA, COLCHEIA,
NOTE_C5, SEMICOLCHEIA, NOTE_B4, SEMICOLCHEIA, NOTE_C5, COLCHEIA, NOTE_B4, COLCHEIA, NOTE_A4, SEMINIMA+SEMINIMA, PAUSA, COLCHEIA,
NOTE_C5, SEMICOLCHEIA, NOTE_B4, SEMICOLCHEIA, NOTE_C5, SEMINIMA, NOTE_E4, SEMINIMA+SEMINIMA,  PAUSA, COLCHEIA,
NOTE_A4, SEMICOLCHEIA, NOTE_G4, SEMICOLCHEIA, NOTE_A4, COLCHEIA, NOTE_G4, COLCHEIA, NOTE_FS4, COLCHEIA, NOTE_A4, COLCHEIA,
*/

//parte 3:
NOTE_G4, SEMINIMA+COLCHEIA, NOTE_FS4, SEMICOLCHEIA, NOTE_G4, SEMICOLCHEIA, NOTE_A4, SEMINIMA+COLCHEIA, NOTE_G4, SEMICOLCHEIA, NOTE_A4, SEMICOLCHEIA,
NOTE_B4, COLCHEIA, NOTE_A4, COLCHEIA, NOTE_G4, COLCHEIA, NOTE_FS4, COLCHEIA, NOTE_E4, SEMINIMA, NOTE_C5, SEMINIMA,
NOTE_B4, MINIMA, NOTE_B4, COLCHEIA, NOTE_C5, SEMINIMA, NOTE_B4, SEMICOLCHEIA, NOTE_A4, SEMICOLCHEIA, NOTE_B4, SEMIBREVE
};

int qtdNotasTfc = sizeof(tfc) / sizeof(tfc[0]) / 2;

//-----